<svg width="60" height="60" viewBox="0 0 60 60" fill="none" xmlns="http://www.w3.org/2000/svg">
<path d="M0 15C0 13.0109 0.790176 11.1032 2.1967 9.6967C3.60322 8.29018 5.51088 7.5 7.5 7.5H52.5C54.4891 7.5 56.3968 8.29018 57.8033 9.6967C59.2098 11.1032 60 13.0109 60 15V45C60 46.9891 59.2098 48.8968 57.8033 50.3033C56.3968 51.7098 54.4891 52.5 52.5 52.5H7.5C5.51088 52.5 3.60322 51.7098 2.1967 50.3033C0.790176 48.8968 0 46.9891 0 45V15ZM7.5 11.25C6.50544 11.25 5.55161 11.6451 4.84835 12.3483C4.14509 13.0516 3.75 14.0054 3.75 15V15.8138L30 31.5637L56.25 15.8138V15C56.25 14.0054 55.8549 13.0516 55.1516 12.3483C54.4484 11.6451 53.4946 11.25 52.5 11.25H7.5ZM56.25 20.1862L38.4075 30.8925L56.25 41.6775V20.19V20.1862ZM56.1225 45.9787L34.7663 33.075L30 35.9363L25.23 33.075L3.8775 45.975C4.09199 46.7716 4.56318 47.4752 5.21808 47.9769C5.87298 48.4786 6.67503 48.7503 7.5 48.75H52.5C53.3245 48.7505 54.1262 48.4794 54.781 47.9784C55.4358 47.4774 55.9073 46.7747 56.1225 45.9787ZM3.75 41.6775L21.5925 30.8925L3.75 20.1862V41.6737V41.6775Z" fill="white"/>
</svg>
