<svg width="63" height="60" viewBox="0 0 63 60" fill="none" xmlns="http://www.w3.org/2000/svg">
<path d="M58.1538 24.1658H57.1154C57.1086 22.8261 56.2219 21.6453 54.9242 21.2479C53.7239 9.19143 43.4413 0 31.1538 0C18.8664 0 8.58376 9.19143 7.38346 21.2479C6.08579 21.6453 5.19908 22.8261 5.19231 24.1658H4.15385C1.85974 24.1658 0 25.9993 0 28.2611V36.4518C0 38.7136 1.85974 40.5472 4.15385 40.5472H5.19231C5.19231 42.2435 6.58711 43.6187 8.30769 43.6187H9.34615V47.714C9.34615 52.803 13.5306 56.9285 18.6923 56.9285H21.9531C22.4253 58.7319 24.0724 59.9939 25.9615 60H36.3461C38.6403 60 40.5 58.1665 40.5 55.9047C40.5 53.6429 38.6403 51.8093 36.3461 51.8093H25.9615C24.0724 51.8154 22.4253 53.0774 21.9531 54.8808H18.6923C14.6776 54.8808 11.4231 51.6721 11.4231 47.714V43.6187H12.4615C14.1821 43.6187 15.5769 42.2435 15.5769 40.5472V24.1658C15.5756 22.9134 14.8031 21.7871 13.6246 21.3195C14.685 12.5677 22.2138 5.97876 31.1538 5.97876C40.0939 5.97876 47.6227 12.5677 48.6831 21.3195C47.5046 21.7871 46.7321 22.9134 46.7308 24.1658V40.5472C46.7308 42.2435 48.1256 43.6187 49.8461 43.6187H54C55.7206 43.6187 57.1154 42.2435 57.1154 40.5472H58.1538C60.4479 40.5472 62.3077 38.7136 62.3077 36.4518V28.2611C62.3077 25.9993 60.4479 24.1658 58.1538 24.1658ZM25.9615 53.857H36.3461C37.4932 53.857 38.4231 54.7738 38.4231 55.9047C38.4231 57.0356 37.4932 57.9523 36.3461 57.9523H25.9615C24.8145 57.9523 23.8846 57.0356 23.8846 55.9047C23.8846 54.7738 24.8145 53.857 25.9615 53.857ZM4.15385 38.4995C3.00679 38.4995 2.07692 37.5827 2.07692 36.4518V28.2611C2.07692 27.1302 3.00679 26.2135 4.15385 26.2135H5.19231V38.4995H4.15385ZM13.5 40.5472C13.5 41.1126 13.0351 41.571 12.4615 41.571H8.30769C7.73417 41.571 7.26923 41.1126 7.26923 40.5472V24.1658C7.26923 23.6004 7.73417 23.142 8.30769 23.142H12.4615C13.0351 23.142 13.5 23.6004 13.5 24.1658V40.5472ZM31.1538 3.68913C21.0706 3.70192 12.6195 11.2083 11.5581 21.0943H9.48115C10.7151 10.212 20.0473 1.98244 31.1538 1.98244C42.2604 1.98244 51.5926 10.212 52.8265 21.0943H50.7496C49.6882 11.2083 41.2371 3.70192 31.1538 3.68913ZM55.0385 40.5472C55.0385 41.1126 54.5735 41.571 54 41.571H49.8461C49.2726 41.571 48.8077 41.1126 48.8077 40.5472V24.1658C48.8077 23.6004 49.2726 23.142 49.8461 23.142H54C54.5735 23.142 55.0385 23.6004 55.0385 24.1658V40.5472ZM60.2308 36.4518C60.2308 37.5827 59.3009 38.4995 58.1538 38.4995H57.1154V26.2135H58.1538C59.3009 26.2135 60.2308 27.1302 60.2308 28.2611V36.4518Z" fill="#4CFA73"/>
</svg>
