<svg width="60" height="60" viewBox="0 0 60 60" fill="none" xmlns="http://www.w3.org/2000/svg">
<path d="M20.0726 18.4755L28.2621 1.16797C28.4193 0.819794 28.6651 0.52572 28.9714 0.31923C29.2777 0.112741 29.6321 0.00213307 29.9945 0C30.6807 0 31.3669 0.38799 31.7381 1.16797L39.9276 18.4755L58.294 21.2595C58.7518 21.3362 59.1708 21.5791 59.4802 21.9471C59.7896 22.3151 59.9706 22.7856 59.9926 23.2794C60.0188 23.6081 59.9751 23.9389 59.8647 24.2471C59.7543 24.5553 59.5802 24.833 59.3552 25.0594L46.1447 38.483L49.257 57.4025C49.5495 59.1745 47.9071 60.5625 46.4597 59.7705L29.9945 50.7467L13.5367 59.7705C13.3646 59.8658 13.18 59.9332 12.9892 59.9705C11.7068 60.2105 10.4844 58.9545 10.7394 57.4025L13.8517 38.483L0.645002 25.0594C0.439685 24.8522 0.276487 24.6021 0.165538 24.3249C0.0545892 24.0476 -0.00174213 23.7489 4.10489e-05 23.4474C0.000236085 23.0212 0.110514 22.6032 0.318772 22.2394C0.466508 21.9757 0.667871 21.7508 0.908003 21.5811C1.14813 21.4115 1.42091 21.3016 1.70619 21.2595L20.0726 18.4755ZM29.9945 46.1068C30.2971 46.1055 30.5956 46.1823 30.8644 46.3308L44.6861 53.9066L42.0837 38.079C42.0223 37.715 42.0456 37.3405 42.1515 36.9883C42.2574 36.6361 42.4427 36.317 42.6912 36.0591L53.5918 24.9794L38.3977 22.6754C38.0831 22.6247 37.7847 22.4935 37.528 22.2928C37.2714 22.0922 37.0641 21.8282 36.924 21.5235L29.9982 6.89182L29.9945 6.90382V46.1028V46.1068Z" fill="#FFD43B"/>
</svg>
