<svg width="60" height="60" viewBox="0 0 60 60" fill="none" xmlns="http://www.w3.org/2000/svg">
<g clip-path="url(#clip0)">
<path fill-rule="evenodd" clip-rule="evenodd" d="M11.625 42C11.7997 41.7671 12.0261 41.5781 12.2865 41.448C12.5468 41.3178 12.8339 41.25 13.125 41.25H22.5C22.9973 41.25 23.4742 41.4475 23.8258 41.7992C24.1775 42.1508 24.375 42.6277 24.375 43.125C24.375 43.6223 24.1775 44.0992 23.8258 44.4508C23.4742 44.8025 22.9973 45 22.5 45H14.0625L5.625 56.25H54.375L45.9375 45H37.5C37.0027 45 36.5258 44.8025 36.1742 44.4508C35.8225 44.0992 35.625 43.6223 35.625 43.125C35.625 42.6277 35.8225 42.1508 36.1742 41.7992C36.5258 41.4475 37.0027 41.25 37.5 41.25H46.875C47.1661 41.25 47.4532 41.3178 47.7135 41.448C47.9739 41.5781 48.2003 41.7671 48.375 42L59.625 57C59.8339 57.2786 59.9612 57.6098 59.9924 57.9566C60.0237 58.3034 59.9578 58.6521 59.802 58.9635C59.6463 59.275 59.407 59.5369 59.1107 59.72C58.8145 59.903 58.4732 60 58.125 60H1.875C1.52679 60 1.18546 59.903 0.889255 59.72C0.59305 59.5369 0.353674 59.275 0.19795 58.9635C0.0422257 58.6521 -0.023694 58.3034 0.00757717 57.9566C0.0388484 57.6098 0.166075 57.2786 0.375001 57L11.625 42Z" fill="white"/>
<path fill-rule="evenodd" clip-rule="evenodd" d="M30 3.75023C28.5226 3.75023 27.0597 4.04122 25.6948 4.60659C24.3299 5.17195 23.0897 6.00062 22.0451 7.04528C21.0004 8.08994 20.1717 9.33013 19.6064 10.695C19.041 12.06 18.75 13.5229 18.75 15.0002C18.75 16.4776 19.041 17.9405 19.6064 19.3054C20.1717 20.6703 21.0004 21.9105 22.0451 22.9552C23.0897 23.9998 24.3299 24.8285 25.6948 25.3939C27.0597 25.9592 28.5226 26.2502 30 26.2502C32.9837 26.2502 35.8452 25.065 37.9549 22.9552C40.0647 20.8454 41.25 17.9839 41.25 15.0002C41.25 12.0165 40.0647 9.15506 37.9549 7.04528C35.8452 4.93549 32.9837 3.75023 30 3.75023ZM15 15.0002C15.0003 12.1136 15.8335 9.28831 17.3996 6.86345C18.9657 4.43858 21.1983 2.51712 23.8294 1.32963C26.4605 0.142135 29.3783 -0.26095 32.2328 0.168742C35.0873 0.598433 37.7572 1.84265 39.9221 3.75209C42.087 5.66153 43.6549 8.15509 44.4378 10.9336C45.2207 13.712 45.1852 16.6574 44.3357 19.4162C43.4861 22.175 41.8586 24.6301 39.6483 26.4868C37.4381 28.3436 34.739 29.5231 31.875 29.884V50.6252C31.875 51.1225 31.6775 51.5994 31.3258 51.9511C30.9742 52.3027 30.4973 52.5002 30 52.5002C29.5027 52.5002 29.0258 52.3027 28.6742 51.9511C28.3225 51.5994 28.125 51.1225 28.125 50.6252V29.8877C24.4986 29.4309 21.1638 27.6656 18.7471 24.9236C16.3303 22.1816 14.9978 18.6515 15 14.9965V15.0002Z" fill="white"/>
</g>
<defs>
<clipPath id="clip0">
<rect width="60" height="60" fill="white"/>
</clipPath>
</defs>
</svg>
