<svg width="60" height="60" viewBox="0 0 60 60" fill="none" xmlns="http://www.w3.org/2000/svg">
<path d="M57.2719 30.2516V21.8188C57.2719 18.9593 55.0539 16.6337 52.2516 16.4082L44.4202 2.72948C43.6944 1.46439 42.5225 0.560181 41.1203 0.184719C39.7246 -0.188187 38.2652 0.00766203 37.0161 0.734681L10.1696 16.3643H5.4545C2.44632 16.3643 0 18.8105 0 21.8188V54.5455C0 57.5537 2.4462 60 5.4545 60H51.8174C54.8256 60 57.2719 57.5538 57.2719 54.5455V46.1126C58.8557 45.5478 59.9991 44.0484 59.9991 42.273V34.0913C59.9991 32.3159 58.8557 30.8164 57.2719 30.2516ZM49.0826 16.3643H37.1973L46.1113 11.1745L49.0826 16.3643ZM44.7564 8.80783L31.777 16.3643H26.3933L43.4102 6.45675L44.7564 8.80783ZM38.389 3.09165C39.0056 2.73076 39.7259 2.63488 40.4145 2.81871C41.1109 3.0051 41.6916 3.45522 42.0525 4.08508L42.0553 4.09007L20.9734 16.3643H15.5899L38.389 3.09165ZM54.5446 54.5455C54.5446 56.0489 53.3208 57.2727 51.8174 57.2727H5.4545C3.95111 57.2727 2.72731 56.0489 2.72731 54.5455V21.8188C2.72731 20.3154 3.95111 19.0916 5.4545 19.0916H51.8174C53.3208 19.0916 54.5446 20.3154 54.5446 21.8188V30.0004H46.3629C41.8512 30.0004 38.1812 33.6704 38.1812 38.1821C38.1812 42.6938 41.8512 46.3638 46.3629 46.3638H54.5446V54.5455ZM57.2719 42.273C57.2719 43.0253 56.6607 43.6366 55.9083 43.6366H46.3629C43.3548 43.6366 40.9084 41.1904 40.9084 38.1821C40.9084 35.174 43.3546 32.7276 46.3629 32.7276H55.9083C56.6606 32.7276 57.2719 33.3388 57.2719 34.0913V42.273Z" fill="#4CFA73"/>
<path d="M46.3629 35.4549C44.8595 35.4549 43.6357 36.6787 43.6357 38.1821C43.6357 39.6855 44.8595 40.9093 46.3629 40.9093C47.8663 40.9093 49.0901 39.6855 49.0901 38.1821C49.0902 36.6787 47.8664 35.4549 46.3629 35.4549Z" fill="#4CFA73"/>
</svg>
