<svg width="60" height="60" viewBox="0 0 60 60" fill="none" xmlns="http://www.w3.org/2000/svg">
<path fill-rule="evenodd" clip-rule="evenodd" d="M56.25 30C56.25 36.9619 53.4844 43.6387 48.5616 48.5616C43.6387 53.4844 36.9619 56.25 30 56.25C23.0381 56.25 16.3613 53.4844 11.4384 48.5616C6.51562 43.6387 3.75 36.9619 3.75 30C3.75 23.0381 6.51562 16.3613 11.4384 11.4384C16.3613 6.51562 23.0381 3.75 30 3.75C36.9619 3.75 43.6387 6.51562 48.5616 11.4384C53.4844 16.3613 56.25 23.0381 56.25 30V30ZM0 30C0 37.9565 3.1607 45.5871 8.7868 51.2132C14.4129 56.8393 22.0435 60 30 60C37.9565 60 45.5871 56.8393 51.2132 51.2132C56.8393 45.5871 60 37.9565 60 30C60 22.0435 56.8393 14.4129 51.2132 8.7868C45.5871 3.16071 37.9565 0 30 0C22.0435 0 14.4129 3.16071 8.7868 8.7868C3.1607 14.4129 0 22.0435 0 30V30ZM43.125 28.125C43.6223 28.125 44.0992 28.3225 44.4508 28.6742C44.8025 29.0258 45 29.5027 45 30C45 30.4973 44.8025 30.9742 44.4508 31.3258C44.0992 31.6775 43.6223 31.875 43.125 31.875H21.4012L29.4525 39.9225C29.6268 40.0968 29.7651 40.3038 29.8595 40.5316C29.9538 40.7593 30.0024 41.0035 30.0024 41.25C30.0024 41.4965 29.9538 41.7407 29.8595 41.9684C29.7651 42.1962 29.6268 42.4032 29.4525 42.5775C29.2782 42.7518 29.0712 42.8901 28.8434 42.9845C28.6157 43.0788 28.3715 43.1274 28.125 43.1274C27.8785 43.1274 27.6343 43.0788 27.4066 42.9845C27.1788 42.8901 26.9718 42.7518 26.7975 42.5775L15.5475 31.3275C15.3729 31.1533 15.2344 30.9464 15.1398 30.7186C15.0453 30.4908 14.9966 30.2466 14.9966 30C14.9966 29.7534 15.0453 29.5092 15.1398 29.2814C15.2344 29.0536 15.3729 28.8467 15.5475 28.6725L26.7975 17.4225C26.9718 17.2482 27.1788 17.1099 27.4066 17.0155C27.6343 16.9212 27.8785 16.8726 28.125 16.8726C28.3715 16.8726 28.6157 16.9212 28.8434 17.0155C29.0712 17.1099 29.2782 17.2482 29.4525 17.4225C29.6268 17.5968 29.7651 17.8038 29.8595 18.0316C29.9538 18.2593 30.0024 18.5035 30.0024 18.75C30.0024 18.9965 29.9538 19.2407 29.8595 19.4684C29.7651 19.6962 29.6268 19.9032 29.4525 20.0775L21.4012 28.125H43.125Z" fill="#9CA3AF"/>
</svg>
