<svg width="60" height="60" viewBox="0 0 60 60" fill="none" xmlns="http://www.w3.org/2000/svg">
<path fill-rule="evenodd" clip-rule="evenodd" d="M3.75 30C3.75 36.9619 6.51562 43.6387 11.4384 48.5616C16.3613 53.4844 23.0381 56.25 30 56.25C36.9619 56.25 43.6387 53.4844 48.5616 48.5616C53.4844 43.6387 56.25 36.9619 56.25 30C56.25 23.0381 53.4844 16.3613 48.5616 11.4384C43.6387 6.51562 36.9619 3.75 30 3.75C23.0381 3.75 16.3613 6.51562 11.4384 11.4384C6.51562 16.3613 3.75 23.0381 3.75 30V30ZM60 30C60 37.9565 56.8393 45.5871 51.2132 51.2132C45.5871 56.8393 37.9565 60 30 60C22.0435 60 14.4129 56.8393 8.7868 51.2132C3.16071 45.5871 0 37.9565 0 30C0 22.0435 3.16071 14.4129 8.7868 8.7868C14.4129 3.16071 22.0435 0 30 0C37.9565 0 45.5871 3.16071 51.2132 8.7868C56.8393 14.4129 60 22.0435 60 30V30ZM16.875 28.125C16.3777 28.125 15.9008 28.3225 15.5492 28.6742C15.1975 29.0258 15 29.5027 15 30C15 30.4973 15.1975 30.9742 15.5492 31.3258C15.9008 31.6775 16.3777 31.875 16.875 31.875H38.5988L30.5475 39.9225C30.3732 40.0968 30.2349 40.3038 30.1405 40.5316C30.0462 40.7593 29.9976 41.0035 29.9976 41.25C29.9976 41.4965 30.0462 41.7407 30.1405 41.9684C30.2349 42.1962 30.3732 42.4032 30.5475 42.5775C30.7218 42.7518 30.9288 42.8901 31.1566 42.9845C31.3843 43.0788 31.6285 43.1274 31.875 43.1274C32.1215 43.1274 32.3657 43.0788 32.5934 42.9845C32.8212 42.8901 33.0282 42.7518 33.2025 42.5775L44.4525 31.3275C44.6271 31.1533 44.7656 30.9464 44.8602 30.7186C44.9547 30.4908 45.0034 30.2466 45.0034 30C45.0034 29.7534 44.9547 29.5092 44.8602 29.2814C44.7656 29.0536 44.6271 28.8467 44.4525 28.6725L33.2025 17.4225C33.0282 17.2482 32.8212 17.1099 32.5934 17.0155C32.3657 16.9212 32.1215 16.8726 31.875 16.8726C31.6285 16.8726 31.3843 16.9212 31.1566 17.0155C30.9288 17.1099 30.7218 17.2482 30.5475 17.4225C30.3732 17.5968 30.2349 17.8038 30.1405 18.0316C30.0462 18.2593 29.9976 18.5035 29.9976 18.75C29.9976 18.9965 30.0462 19.2407 30.1405 19.4684C30.2349 19.6962 30.3732 19.9032 30.5475 20.0775L38.5988 28.125H16.875Z" fill="#10B981"/>
</svg>
