<svg width="60" height="60" viewBox="0 0 60 60" fill="none" xmlns="http://www.w3.org/2000/svg">
<path d="M0 4.875C0 4.37772 0.197544 3.90081 0.549175 3.54918C0.900805 3.19754 1.37772 3 1.875 3H7.5C7.91824 3.00012 8.32444 3.14007 8.65399 3.39759C8.98355 3.65512 9.21753 4.01544 9.31875 4.42125L10.8375 10.5H54.375C54.6598 10.5001 54.9409 10.565 55.1968 10.6899C55.4528 10.8149 55.6769 10.9964 55.8522 11.2209C56.0275 11.4454 56.1494 11.7068 56.2086 11.9854C56.2677 12.264 56.2627 12.5524 56.1937 12.8287L50.5687 35.3288C50.4675 35.7346 50.2335 36.0949 49.904 36.3524C49.5744 36.6099 49.1682 36.7499 48.75 36.75H15C14.5818 36.7499 14.1756 36.6099 13.846 36.3524C13.5165 36.0949 13.2825 35.7346 13.1812 35.3288L6.0375 6.75H1.875C1.37772 6.75 0.900805 6.55246 0.549175 6.20082C0.197544 5.84919 0 5.37228 0 4.875ZM11.775 14.25L16.4625 33H47.2875L51.975 14.25H11.775ZM18.75 44.25C17.7554 44.25 16.8016 44.6451 16.0983 45.3484C15.3951 46.0516 15 47.0054 15 48C15 48.9946 15.3951 49.9484 16.0983 50.6516C16.8016 51.3549 17.7554 51.75 18.75 51.75C19.7446 51.75 20.6984 51.3549 21.4016 50.6516C22.1049 49.9484 22.5 48.9946 22.5 48C22.5 47.0054 22.1049 46.0516 21.4016 45.3484C20.6984 44.6451 19.7446 44.25 18.75 44.25ZM11.25 48C11.25 46.0109 12.0402 44.1032 13.4467 42.6967C14.8532 41.2902 16.7609 40.5 18.75 40.5C20.7391 40.5 22.6468 41.2902 24.0533 42.6967C25.4598 44.1032 26.25 46.0109 26.25 48C26.25 49.9891 25.4598 51.8968 24.0533 53.3033C22.6468 54.7098 20.7391 55.5 18.75 55.5C16.7609 55.5 14.8532 54.7098 13.4467 53.3033C12.0402 51.8968 11.25 49.9891 11.25 48ZM45 44.25C44.0054 44.25 43.0516 44.6451 42.3483 45.3484C41.6451 46.0516 41.25 47.0054 41.25 48C41.25 48.9946 41.6451 49.9484 42.3483 50.6516C43.0516 51.3549 44.0054 51.75 45 51.75C45.9946 51.75 46.9484 51.3549 47.6516 50.6516C48.3549 49.9484 48.75 48.9946 48.75 48C48.75 47.0054 48.3549 46.0516 47.6516 45.3484C46.9484 44.6451 45.9946 44.25 45 44.25ZM37.5 48C37.5 46.0109 38.2902 44.1032 39.6967 42.6967C41.1032 41.2902 43.0109 40.5 45 40.5C46.9891 40.5 48.8968 41.2902 50.3033 42.6967C51.7098 44.1032 52.5 46.0109 52.5 48C52.5 49.9891 51.7098 51.8968 50.3033 53.3033C48.8968 54.7098 46.9891 55.5 45 55.5C43.0109 55.5 41.1032 54.7098 39.6967 53.3033C38.2902 51.8968 37.5 49.9891 37.5 48Z" fill="#131313"/>
</svg>
