<svg width="60" height="60" viewBox="0 0 60 60" fill="none" xmlns="http://www.w3.org/2000/svg">
<path d="M10.7424 57.4002C10.45 59.1761 12.0925 60.564 13.54 59.772L30.0024 50.7487L46.4612 59.772C47.9087 60.564 49.5512 59.1761 49.2587 57.4042L46.1462 38.4856L59.3537 25.0627C60.5912 23.8068 59.9537 21.5109 58.2962 21.263L39.9287 18.4792L31.7387 1.17249C31.5827 0.821668 31.3365 0.525267 31.0289 0.31772C30.7212 0.110173 30.3646 0 30.0006 0C29.6365 0 29.28 0.110173 28.9723 0.31772C28.6646 0.525267 28.4185 0.821668 28.2625 1.17249L20.0725 18.4832L1.70495 21.267C0.0512004 21.5149 -0.59005 23.8108 0.6437 25.0667L13.855 38.4896L10.7424 57.4082V57.4002ZM29.1362 46.333L15.3137 53.9085L17.9162 38.0817C17.9772 37.7174 17.9533 37.3426 17.8467 36.9904C17.7402 36.6383 17.5541 36.3194 17.305 36.0618L6.40745 24.9827L21.6025 22.6788C21.9171 22.6282 22.2155 22.4969 22.4722 22.2963C22.7289 22.0957 22.9361 21.8317 23.0762 21.5269L29.9949 6.89605L36.9212 21.5269C37.0613 21.8317 37.2685 22.0957 37.5252 22.2963C37.7819 22.4969 38.0803 22.6282 38.395 22.6788L53.59 24.9787L42.6924 36.0578C42.4427 36.3158 42.2563 36.6353 42.1497 36.9883C42.0431 37.3412 42.0196 37.7167 42.0812 38.0817L44.6837 53.9085L30.8612 46.333C30.5939 46.1861 30.2975 46.1094 29.9968 46.1094C29.6961 46.1094 29.3997 46.1861 29.1325 46.333H29.1362Z" fill="#FFD43C"/>
</svg>
