<svg width="60" height="60" viewBox="0 0 60 60" fill="none" xmlns="http://www.w3.org/2000/svg">
<path d="M20.625 20.625C21.1223 20.625 21.5992 20.8225 21.9508 21.1742C22.3025 21.5258 22.5 22.0027 22.5 22.5V45C22.5 45.4973 22.3025 45.9742 21.9508 46.3258C21.5992 46.6775 21.1223 46.875 20.625 46.875C20.1277 46.875 19.6508 46.6775 19.2992 46.3258C18.9475 45.9742 18.75 45.4973 18.75 45V22.5C18.75 22.0027 18.9475 21.5258 19.2992 21.1742C19.6508 20.8225 20.1277 20.625 20.625 20.625V20.625ZM30 20.625C30.4973 20.625 30.9742 20.8225 31.3258 21.1742C31.6775 21.5258 31.875 22.0027 31.875 22.5V45C31.875 45.4973 31.6775 45.9742 31.3258 46.3258C30.9742 46.6775 30.4973 46.875 30 46.875C29.5027 46.875 29.0258 46.6775 28.6742 46.3258C28.3225 45.9742 28.125 45.4973 28.125 45V22.5C28.125 22.0027 28.3225 21.5258 28.6742 21.1742C29.0258 20.8225 29.5027 20.625 30 20.625V20.625ZM41.25 22.5C41.25 22.0027 41.0525 21.5258 40.7008 21.1742C40.3492 20.8225 39.8723 20.625 39.375 20.625C38.8777 20.625 38.4008 20.8225 38.0492 21.1742C37.6975 21.5258 37.5 22.0027 37.5 22.5V45C37.5 45.4973 37.6975 45.9742 38.0492 46.3258C38.4008 46.6775 38.8777 46.875 39.375 46.875C39.8723 46.875 40.3492 46.6775 40.7008 46.3258C41.0525 45.9742 41.25 45.4973 41.25 45V22.5Z" fill="#9CA3AF"/>
<path fill-rule="evenodd" clip-rule="evenodd" d="M54.375 11.25C54.375 12.2446 53.9799 13.1984 53.2766 13.9017C52.5734 14.6049 51.6196 15 50.625 15H48.75V48.75C48.75 50.7391 47.9598 52.6468 46.5533 54.0533C45.1468 55.4598 43.2391 56.25 41.25 56.25H18.75C16.7609 56.25 14.8532 55.4598 13.4467 54.0533C12.0402 52.6468 11.25 50.7391 11.25 48.75V15H9.375C8.38044 15 7.42661 14.6049 6.72335 13.9017C6.02009 13.1984 5.625 12.2446 5.625 11.25V7.5C5.625 6.50544 6.02009 5.55161 6.72335 4.84835C7.42661 4.14509 8.38044 3.75 9.375 3.75H22.5C22.5 2.75544 22.8951 1.80161 23.5984 1.09835C24.3016 0.395088 25.2554 0 26.25 0L33.75 0C34.7446 0 35.6984 0.395088 36.4016 1.09835C37.1049 1.80161 37.5 2.75544 37.5 3.75H50.625C51.6196 3.75 52.5734 4.14509 53.2766 4.84835C53.9799 5.55161 54.375 6.50544 54.375 7.5V11.25ZM15.4425 15L15 15.2213V48.75C15 49.7446 15.3951 50.6984 16.0984 51.4016C16.8016 52.1049 17.7554 52.5 18.75 52.5H41.25C42.2446 52.5 43.1984 52.1049 43.9016 51.4016C44.6049 50.6984 45 49.7446 45 48.75V15.2213L44.5575 15H15.4425ZM9.375 11.25V7.5H50.625V11.25H9.375Z" fill="#9CA3AF"/>
</svg>
