<svg width="60" height="60" viewBox="0 0 60 60" fill="none" xmlns="http://www.w3.org/2000/svg">
<g clip-path="url(#clip0)">
<path d="M13.7019 4.97981C13.4806 4.69504 13.2011 4.46063 12.8822 4.29216C12.5633 4.12368 12.2121 4.02499 11.8521 4.00264C11.4921 3.9803 11.1315 4.03481 10.7942 4.16255C10.4569 4.2903 10.1506 4.48835 9.8957 4.74356L6.0182 8.62481C4.20695 10.4398 3.53945 13.0086 4.3307 15.2623C7.61472 24.5908 12.9568 33.0602 19.9607 40.0423C26.9429 47.0461 35.4123 52.3882 44.7407 55.6723C46.9944 56.4636 49.5632 55.7961 51.3782 53.9848L55.2557 50.1073C55.5109 49.8524 55.709 49.5461 55.8367 49.2088C55.9645 48.8715 56.019 48.5109 55.9966 48.1509C55.9743 47.7909 55.8756 47.4397 55.7071 47.1208C55.5386 46.8019 55.3042 46.5224 55.0195 46.3011L46.3682 39.5736C46.064 39.3376 45.7101 39.1738 45.3333 39.0946C44.9566 39.0153 44.5667 39.0227 44.1932 39.1161L35.9807 41.1673C34.8845 41.4413 33.736 41.4268 32.6471 41.1251C31.5582 40.8235 30.5659 40.245 29.767 39.4461L20.5569 30.2323C19.7573 29.4337 19.1782 28.4416 18.8759 27.3527C18.5736 26.2637 18.5584 25.1151 18.8319 24.0186L20.8869 15.8061C20.9804 15.4325 20.9877 15.0427 20.9085 14.6659C20.8292 14.2891 20.6654 13.9353 20.4294 13.6311L13.7019 4.97981ZM7.06445 1.91606C7.72068 1.25962 8.50905 0.750301 9.37722 0.421917C10.2454 0.0935324 11.1735 -0.0464001 12.0999 0.011411C13.0263 0.0692221 13.9298 0.323454 14.7504 0.757225C15.571 1.191 16.2899 1.79438 16.8594 2.52731L23.5869 11.1748C24.8207 12.7611 25.2557 14.8273 24.7682 16.7773L22.7169 24.9898C22.6109 25.4152 22.6166 25.8607 22.7336 26.2832C22.8505 26.7057 23.0748 27.0908 23.3844 27.4011L32.5982 36.6148C32.9088 36.9251 33.2945 37.1497 33.7178 37.2667C34.141 37.3837 34.5873 37.3891 35.0132 37.2823L43.222 35.2311C44.1843 34.9905 45.1887 34.9718 46.1593 35.1764C47.1298 35.381 48.0412 35.8037 48.8245 36.4123L57.472 43.1398C60.5807 45.5586 60.8657 50.1523 58.0832 52.9311L54.2057 56.8086C51.4307 59.5836 47.2832 60.8023 43.417 59.4411C33.5214 55.9593 24.5367 50.2942 17.1294 42.8661C9.70178 35.4599 4.03673 26.4765 0.554447 16.5823C-0.803053 12.7198 0.415697 8.56856 3.1907 5.79356L7.0682 1.91606H7.06445Z" fill="white"/>
</g>
<defs>
<clipPath id="clip0">
<rect width="60" height="60" fill="white"/>
</clipPath>
</defs>
</svg>
