<svg width="93" height="60" viewBox="0 0 93 60" fill="none" xmlns="http://www.w3.org/2000/svg">
<path d="M21.5386 41.5384C16.4477 41.5384 12.3078 45.6784 12.3078 50.7692C12.3078 55.86 16.4477 60 21.5386 60C26.6294 60 30.7693 55.86 30.7693 50.7692C30.7693 45.6784 26.6292 41.5384 21.5386 41.5384ZM21.5386 56.923C18.1446 56.923 15.3848 54.163 15.3848 50.7692C15.3848 47.3753 18.1448 44.6154 21.5386 44.6154C24.9323 44.6154 27.6924 47.3755 27.6924 50.7692C27.6924 54.163 24.9323 56.923 21.5386 56.923Z" fill="#4CFA73"/>
<path d="M73.8463 41.5384C68.7555 41.5384 64.6155 45.6784 64.6155 50.7692C64.6155 55.86 68.7555 60 73.8463 60C78.9371 60 83.0771 55.86 83.0771 50.7692C83.0771 45.6784 78.9371 41.5384 73.8463 41.5384ZM73.8463 56.923C70.4523 56.923 67.6925 54.163 67.6925 50.7692C67.6925 47.3753 70.4525 44.6154 73.8463 44.6154C77.2402 44.6154 80.0001 47.3755 80.0001 50.7692C80.0001 54.163 77.2402 56.923 73.8463 56.923Z" fill="#4CFA73"/>
<path d="M92.0632 33.0139L78.2171 11.4754C77.934 11.0353 77.4463 10.7692 76.9231 10.7692H60.0001C59.1494 10.7692 58.4617 11.4584 58.4617 12.3076V50.7691C58.4617 51.6198 59.1494 52.3075 60.0001 52.3075H66.1539V49.2305H61.5385V13.8462H76.0832L89.2309 34.2984V49.2308H81.5385V52.3076H90.7693C91.6201 52.3076 92.3077 51.62 92.3077 50.7692V33.8461C92.3079 33.5522 92.2233 33.2614 92.0632 33.0139Z" fill="#4CFA73"/>
<path d="M67.6925 30.7691V19.9999H80.0002V16.923H66.1541C65.3033 16.923 64.6157 17.6122 64.6157 18.4614V32.3075C64.6157 33.1583 65.3033 33.8459 66.1541 33.8459H89.231V30.7689H67.6925V30.7691Z" fill="#4CFA73"/>
<path d="M60.0001 0H1.5384C0.689244 0 0 0.689242 0 1.5384V50.7692C0 51.62 0.689244 52.3076 1.5384 52.3076H13.8462V49.2307H3.07699V3.0768H58.4617V49.2307H29.2308V52.3076H60.0001C60.8509 52.3076 61.5385 51.62 61.5385 50.7692V1.5384C61.5385 0.689242 60.8509 0 60.0001 0Z" fill="#4CFA73"/>
<path d="M10.7692 43.0768H1.53842V46.1538H10.7692V43.0768Z" fill="#4CFA73"/>
<path d="M58.4617 43.0768H32.3078V46.1538H58.4617V43.0768Z" fill="#4CFA73"/>
<path d="M90.7693 43.0768H84.6155V46.1538H90.7693V43.0768Z" fill="#4CFA73"/>
<path d="M60.0002 6.15377H6.15384V9.23076H60.0002V6.15377Z" fill="#4CFA73"/>
<path d="M23.077 49.2307H20V52.3077H23.077V49.2307Z" fill="#4CFA73"/>
<path d="M75.3849 49.2307H72.3079V52.3077H75.3849V49.2307Z" fill="#4CFA73"/>
</svg>
